HIERARCHY
ROOT HipCenter
{
    OFFSET 0.0 0.0 -0.0
    CHANNELS 6 Xposition Yposition Zposition Zrotation Xrotation Yrotation
    JOINT Spine
    {
        OFFSET 0.0 11.543972969055176 0.0
        CHANNELS 3 Zrotation Xrotation Yrotation
        JOINT ShoulderCenter
        {
            OFFSET 0.0 33.003990173339844 0.0
            CHANNELS 3 Zrotation Xrotation Yrotation
            JOINT LeftShoulder
            {
                OFFSET 18.716466903686523 0.0 0.0
                CHANNELS 3 Zrotation Xrotation Yrotation
                JOINT LeftElbow
                {
                    OFFSET 28.854522705078125 0.0 0.0
                    CHANNELS 3 Zrotation Xrotation Yrotation
                    JOINT LeftWrist
                    {
                        OFFSET 29.326793670654297 0.0 0.0
                        CHANNELS 3 Zrotation Xrotation Yrotation
                        JOINT LeftHand
                        {
                            OFFSET 3.779101848602295 0.0 0.0
                            CHANNELS 3 Zrotation Xrotation Yrotation
                            End Site
                            {
                                OFFSET 1.5116407871246338 0.0 0.0
                            }
                        }
                    }
                }
            }
            JOINT RightShoulder
            {
                OFFSET -18.716466903686523 0.0 0.0
                CHANNELS 3 Zrotation Xrotation Yrotation
                JOINT RightElbow
                {
                    OFFSET -28.854522705078125 0.0 0.0
                    CHANNELS 3 Zrotation Xrotation Yrotation
                    JOINT RightWrist
                    {
                        OFFSET -29.326793670654297 0.0 0.0
                        CHANNELS 3 Zrotation Xrotation Yrotation
                        JOINT RightHand
                        {
                            OFFSET -3.779101848602295 0.0 0.0
                            CHANNELS 3 Zrotation Xrotation Yrotation
                            End Site
                            {
                                OFFSET -1.5116407871246338 0.0 0.0
                            }
                        }
                    }
                }
            }
            End Site
            {
                OFFSET 0.0 13.201595306396484 0.0
            }
        }
    }
    JOINT LeftHip
    {
        OFFSET 13.485027313232422 0.0 0.0
        CHANNELS 3 Zrotation Xrotation Yrotation
        JOINT LeftKnee
        {
            OFFSET 0.0 -41.1812744140625 0.0
            CHANNELS 3 Zrotation Xrotation Yrotation
            JOINT LeftAnkle
            {
                OFFSET 0.0 -42.33606719970703 0.0
                CHANNELS 3 Zrotation Xrotation Yrotation
                JOINT LeftFoot
                {
                    OFFSET 0.0 -13.492859840393066 0.0
                    CHANNELS 3 Zrotation Xrotation Yrotation
                    End Site
                    {
                        OFFSET 0.0 0.0 5.397144317626953
                    }
                }
            }
        }
    }
    JOINT RightHip
    {
        OFFSET -13.485027313232422 0.0 0.0
        CHANNELS 3 Zrotation Xrotation Yrotation
        JOINT RightKnee
        {
            OFFSET 0.0 -41.1812744140625 0.0
            CHANNELS 3 Zrotation Xrotation Yrotation
            JOINT RightAnkle
            {
                OFFSET 0.0 -42.33606719970703 0.0
                CHANNELS 3 Zrotation Xrotation Yrotation
                JOINT RightFoot
                {
                    OFFSET 0.0 -13.492859840393066 0.0
                    CHANNELS 3 Zrotation Xrotation Yrotation
                    End Site
                    {
                        OFFSET 0.0 0.0 5.397144317626953
                    }
                }
            }
        }
    }
}
MOTION
Frames: 7
Frame Time: 0.03333333333333333
-151.0 -1.100000023841858 -24.399999618530273 -1.013963233052024 -9.543065658007723 169.65366440126104 0.9944528634330567 8.528832316158793 0.7064541977935536 2.8133083706107405e-07 -1.2459495741813584e-07 1.4058124115595032 101.99560396620429 13.189776980083574 -176.1420880571567 1.6330932690375017e-06 2.7684900450248846e-06 43.59280412453955 -2.2012803857152036e-06 -23.344417069158144 7.712896839236564 -6.3611093629270335e-15 -1.7655625192200634e-31 3.1805546814635168e-15 -114.670427858341 49.29968976378087 166.53147175915288 5.97403553571353e-07 -1.6041870809524318e-06 -53.45971545958033 -2.3210693254525973e-06 -70.42999344967745 -38.631176664749184 0.0 0.0 0.0 2.3533555202343712 -7.398076099123893 -30.345521386781787 -23.75818270574173 20.34030209762836 -7.903400299882588 90.3297480653537 -41.71592068687817 119.5646936744598 1.5902773407317584e-15 4.4139062980501586e-32 3.1805546814635168e-15 9.23316221801456 -34.823706028548436 -1.4209165390343532 10.33652552085604 35.15497294233997 28.411168764468574 -107.68613348757373 -22.819484718020757 -162.98772283277864 -6.3611093629270335e-15 3.1805546814635168e-15 1.5902773407317584e-15
-151.0 -0.800000011920929 -26.19999885559082 -1.5074510448829035 -9.947260990789418 165.70247374070016 2.754954907760502 8.81824111853156 0.02616147265212475 -1.219525290716338e-07 -1.018590400252281e-06 2.6105392889654233 99.45963121220657 14.51217597472481 179.34060322160659 -9.987299003790825e-07 -6.357606929483392e-08 44.670943826175716 6.679576906355524e-07 -14.159429382907021 12.117679528134959 6.3611093629270335e-15 0.0 0.0 -115.86833305722843 47.883535989699766 162.39984890102565 -1.9323330226542485e-06 -2.211768011125698e-06 -50.55716573331461 -1.4432070063803474e-06 -72.49774348145161 -40.08452197704015 0.0 0.0 -7.951386703658792e-16 6.057347587441873 -12.672662411788078 -26.509001122525486 -31.951877214383483 27.58626664879382 -10.362717737629053 77.5811164781026 -38.88453508827223 100.40978643837825 0.0 0.0 1.5902773407317582e-15 11.281584366451188 -32.686588374252814 3.3274916632120064 10.675890849830365 32.561538442340485 23.611762612653617 -107.13679986737661 -26.441258780368635 -158.9984451068072 0.0 0.0 -1.5902773407317584e-15
-151.3000030517578 -0.30000001192092896 -28.299999237060547 -3.51373514825366 -7.481935407975517 161.66873119031817 0.873022548214017 11.731932224508252 -0.14661530377685766 -3.8398772255563946e-07 2.32608186669543e-07 5.335926150082676 98.7504045208215 11.151596273011627 -177.16858096833366 -5.132538101179236e-06 7.254808215485887e-08 35.60469360714945 -6.561773452188505e-06 -19.91143438357018 16.636572772475674 6.3611093629270335e-15 -3.1805546814635168e-15 3.1805546814635168e-15 -115.4074226801888 48.75768486415756 157.994477928948 -1.0338044985127664e-06 -1.4118030020938407e-06 -46.72622983069076 -8.296414619783611e-07 -69.30144243638858 -37.03234621362971 -1.5902773407317584e-15 1.1034765745125397e-32 -7.951386703658792e-16 6.515572059129502 -15.655706183162062 -22.495540352613965 -38.35393374495727 36.45173196104398 -11.967588728497617 69.0395520465994 -40.7521459850699 81.94249650105475 3.9756933518293955e-16 4.138037154422024e-33 1.1927080055488186e-15 8.497163318540021 -28.346887328964574 7.201469116241229 13.432410436071432 30.39082248923224 20.101082350293105 -106.08977780120416 -29.047604353714682 -155.23137283872342 0.0 0.0 -3.1805546814635164e-15
-151.40000915527344 -0.5 -29.30000114440918 -4.014190680640784 -8.461093948243056 158.51433740371377 1.1334488919432588 12.070584749222204 0.028283657838732233 3.385044250906918e-07 1.2741850586348258e-06 5.7587283749216605 98.85676556064385 7.303873901059979 -178.36965354449447 -5.705620950823627e-06 -6.537449643716389e-07 34.40094763597145 1.6740564138115314e-06 -28.388367269704982 21.6191635024735 6.3611093629270335e-15 1.7655625192200634e-31 3.1805546814635168e-15 -114.0589873352873 47.40217781629952 152.30972726064195 7.402481074191652e-06 -1.8929583289100524e-07 -42.37771797730964 -1.2273035900997797e-05 -69.53035635780418 -35.26308239547513 -3.975693351829396e-16 0.0 0.0 8.323299252869003 -21.775302227375896 -15.476013451939485 -40.52786454908074 47.49059985207314 -14.69047622118515 63.23911245443791 -43.72385302067703 70.60740618795417 -7.951386703658791e-16 2.758691436281349e-33 -3.9756933518293955e-16 9.493022698956631 -28.70446881079829 8.915315407735818 13.446830038401398 30.81644810159419 20.455054922723466 -104.96242035836043 -30.830607036782478 -153.12926649754192 -6.3611093629270335e-15 8.827812596100317e-32 -1.5902773407317584e-15
-151.60000610351562 -0.30000001192092896 -30.30000114440918 -5.057248697049192 -10.487715584041586 152.8270841484414 3.658288768306383 11.184044080670482 -0.6606070316817403 -5.757638374915832e-07 -7.798841403016041e-07 8.816953130512072 96.59753778448146 9.798440149538255 -177.98925627697008 -7.116272170060817e-06 -2.6003834435210607e-06 35.315275239999444 1.8434948377778107e-06 -17.119230225095034 23.979194265875883 -6.361109362927033e-15 0.0 0.0 -112.83949502540818 46.733631889456454 145.2098027934014 2.2199438556625645e-06 -8.742912243245669e-07 -37.113666390845545 3.521297861167007e-06 -70.86907228843222 -34.96184058651585 0.0 -6.3611093629270335e-15 0.0 13.651933317864634 -29.803514859698478 -1.3987999438011742 -41.511373214127026 62.40931237795645 -22.793619041565673 70.61823698938841 -34.422229740837544 76.14589086880457 7.951386703658792e-16 1.3793457181406746e-32 1.987846675914698e-15 12.87595591490727 -29.111491381243408 11.691813876230986 10.734996681272346 29.724553642032554 18.696569969436755 -101.86570705471416 -34.895835419405 -146.81468822861362 6.3611093629270335e-15 -1.7655625192200634e-31 -3.1805546814635168e-15
-152.0 0.5 -31.5 -7.628149538565957 -11.504812466047804 147.65312141697225 4.796336202826396 9.773903052561053 -1.148878408528857 1.532720881940679e-06 -8.69565805905482e-07 11.474346944559503 94.83451369638314 6.5702767635441965 -178.64035366913646 -1.21158233543884e-06 5.257325957017549e-07 35.64268909164996 -1.6380449337476576e-06 -22.160027295537237 24.35367839866558 0.0 0.0 0.0 -111.38957325553592 46.541278708865626 139.00294049788045 8.672372380827891e-07 1.4712129553408752e-07 -31.77845732566727 4.831750663316406e-06 -74.39067889274082 -27.8771219653939 1.987846675914698e-16 0.0 0.0 15.031336158398913 -36.83858029145741 15.126878001585586 -8.964473327151985 78.5519124309227 -59.34023272101702 80.64994143568164 -23.141315705884924 91.35279541571784 -2.3793713637926635e-32 3.1805546814635168e-15 8.572588789882135e-16 12.825383451024546 -27.988131441341366 15.341357293567086 9.575309032304004 25.613835368819114 16.13511187614835 -97.43990180435853 -38.77355107023698 -140.82086963204733 -6.3611093629270335e-15 6.3611093629270335e-15 -1.9878466759146976e-15
-152.3000030517578 1.0 -32.79999923706055 -9.130192149480944 -11.461664132754917 141.11356029106867 3.983219021799365 10.103774655235387 -1.4729187339001522 9.135448805052101e-07 2.3619352115215694e-07 13.901748762984607 93.41104264730166 10.300077683133372 177.95242735478706 -4.5904242178702656e-06 -9.939929675704023e-07 42.575623220833116 2.052315535682262e-06 -18.204760372886728 19.35565495964613 0.0 0.0 0.0 -104.94643727563775 44.51272943559037 130.18832194770013 -9.500076023216631e-07 -7.122216350975977e-06 -25.78573633944876 2.2150292642514733e-06 -77.14705943859768 -24.10956414295353 6.708982531212105e-16 -4.6552917987247765e-33 -7.951386703658792e-16 19.268051251212373 -42.24191150698237 35.4662694869779 79.51002894695554 73.19690763250594 -152.18917297795295 86.88608294383637 -15.69598666681435 107.60204995492477 -3.975693351829398e-16 6.361109362927035e-15 1.739365841425361e-15 14.142479100338594 -24.404774718683566 20.642624019816694 7.576779808547989 19.87878028707715 11.461360170396244 -90.80245360509564 -44.36297486852009 -129.08569542908856 1.4896933755919285e-31 6.3611093629270335e-15 -2.683593012484842e-15
